<?xml version="1.0" standalone="no"?>
<!DOCTYPE svg PUBLIC "-//W3C//DTD SVG 20010904//EN"
 "http://www.w3.org/TR/2001/REC-SVG-20010904/DTD/svg10.dtd">
<svg version="1.0" xmlns="http://www.w3.org/2000/svg"
 width="307.000000pt" height="356.000000pt" viewBox="0 0 307.000000 356.000000"
 preserveAspectRatio="xMidYMid meet">

<g transform="translate(0.000000,356.000000) scale(0.100000,-0.100000)"
fill="#000000" stroke="none">
<path d="M875 3549 c-455 -58 -808 -417 -865 -879 -14 -114 -14 -1666 0 -1780
28 -230 118 -418 277 -583 159 -166 366 -268 603 -297 112 -13 1178 -13 1290
0 231 29 420 119 584 278 168 163 267 364 296 602 14 114 14 1666 0 1780 -29
238 -128 439 -296 602 -164 159 -353 249 -584 278 -103 12 -1204 11 -1305 -1z
m1337 -213 c326 -63 571 -308 634 -634 21 -108 21 -1736 0 -1844 -63 -326
-308 -571 -634 -634 -107 -20 -1247 -20 -1354 0 -326 63 -571 308 -634 634
-21 108 -21 1736 0 1844 62 322 305 568 626 633 98 20 1259 21 1362 1z"/>
<path d="M1260 3127 l-94 -184 89 -187 89 -186 135 0 c75 0 159 -3 186 -6 l50
-5 95 185 95 185 -90 185 -90 186 -126 0 c-69 0 -153 3 -185 6 l-59 6 -95
-185z"/>
</g>
</svg>
