<?xml version="1.0" standalone="no"?>
<!DOCTYPE svg PUBLIC "-//W3C//DTD SVG 20010904//EN"
 "http://www.w3.org/TR/2001/REC-SVG-20010904/DTD/svg10.dtd">
<svg version="1.0" xmlns="http://www.w3.org/2000/svg"
 width="301.000000pt" height="301.000000pt" viewBox="0 0 301.000000 301.000000"
 preserveAspectRatio="xMidYMid meet">

<g transform="translate(0.000000,301.000000) scale(0.100000,-0.100000)"
fill="#000000" stroke="none">
<path d="M237 2999 c-94 -22 -179 -96 -213 -185 -18 -47 -19 -94 -19 -1314 l0
-1265 26 -55 c33 -70 79 -116 149 -149 l55 -26 1270 0 1270 0 55 26 c70 33
116 79 149 149 l26 55 0 1270 0 1270 -26 55 c-33 70 -79 116 -149 149 l-55 26
-1250 2 c-709 0 -1266 -3 -1288 -8z m2413 -202 c0 -1 -258 -260 -573 -575
l-572 -572 -575 575 -575 575 1148 0 c631 0 1147 -1 1147 -3z m-1862 -720
l572 -572 -575 -575 -575 -575 0 1148 c0 631 1 1147 3 1147 1 0 260 -258 575
-573z m2012 -574 l0 -1148 -575 575 -575 575 572 572 c315 315 574 573 575
573 2 0 3 -516 3 -1147z m-720 -718 l575 -575 -1150 0 -1150 0 575 575 c316
316 575 575 575 575 0 0 259 -259 575 -575z"/>
</g>
</svg>
